 http://www.silvertorrent.org
 
http://silvertorrent.org/index.php?page=torrent-details&id=c45f6fd414b914adffe676ca7008ca71e1ff240d
 
http://www.shotpix.com/images/08096634903738710469.png
 
http://leetleech.org/images/54937416200370680836.jpg

Taken 2 2012 DVDRIP XVID AC3 HS

 
http://www.imdb.com/title/tt1397280/


Source -- retail ( HS )



File size                                : 1.36 GiB
Duration                                 : 1h 32mn
Overall bit rate                         : 2 095 Kbps

Video
ID                                       : 0

Codec ID                                 : XVID
Codec ID/Hint                            : XviD
Duration                                 : 1h 32mn
Bit rate                                 : 1 704 Kbps
Width                                    : 720 pixels
Height                                   : 304 pixels
Display aspect ratio                     : 2.35:1
Frame rate                               : 23.976 fps
Color space                              : YUV
Chroma subsampling                       : 4:2:0
Bit depth                                : 8 bits
Scan type                                : Progressive
Compression mode                         : Lossy
Bits/(Pixel*Frame)                       : 0.325
Stream size                              : 1.10 GiB (81%)
Writing library                          : XviD 64

Audio
ID                                       : 1
Format                                   : AC-3
Format/Info                              : Audio Coding 3
Mode extension                           : CM (complete main)
Format settings, Endianness              : Big
Codec ID                                 : 2000
Duration                                 : 1h 32mn
Bit rate mode                            : Constant
Bit rate                                 : 384 Kbps
Channel(s)                               : 6 channels
Channel positions                        : Front: L C R, Side: L R, LFE
Sampling rate                            : 44.1 KHz
Bit depth                                : 16 bits
Compression mode                         : Lossy
Stream size                              : 253 MiB (18%)
 
http://silvertorrent.org/index.php?page=torrent-details&id=c45f6fd414b914adffe676ca7008ca71e1ff240d
 
http://imgon.net/di-G2EB.png 
http://imgon.net/di-NXJL.png 
http://imgon.net/di-IY9D.png 
http://imgon.net/di-9GJV.png

NOTE
-------

Whoever Mourn About the Source..Please Visit us.. We will show You all Proof You Need..Happy Holidays 

GREETZ

All Who Loves Us
